# xmcd CD database file
#
# Track frame offsets:
#	150
#	29500
#	43038
#	59463
#	77950
#	98425
#	120288
#	144775
#	172825
#	187900
#	212051
#	235488
#	260425
#	283300
#	299612
#
# Disc length: 4303 seconds
#
# Revision: 0
# Processed by: cddbd v1.5.2PL0 Copyright (c) Steve Scherf et al.
# Submitted via: CDex 1.70beta2
#
DISCID=d610cd0f
DTITLE=S.E.N.S - Natural
DYEAR=2004
DGENRE=New Age
TTITLE0=Future (日劇《二千年之戀》配樂)
TTITLE1=I For You (Instrumental) (日劇《神啊！請給我多點時間》配樂)
TTITLE2=Peace
TTITLE3=TORO ALATO (日劇《二千年之戀》配樂)
TTITLE4=Aurora
TTITLE5=Maria
TTITLE6=Something In The Air (日劇《二千年之戀》配樂)
TTITLE7=Asian Blue - 月亮暢泳於海上
TTITLE8=Feel Me (日劇《現代灰姑娘》配樂)
TTITLE9=Lunar Dream (日劇《P.S.俊平你好嗎》配樂)
TTITLE10=Requiem (日劇《愛情白皮書》配樂)
TTITLE11=海神
TTITLE12=沉醉於風中 (日劇《愛情白皮書》配樂)
TTITLE13=Love In Song
TTITLE14=Palace Memories
EXTD=YEAR: 2004
EXTT0=
EXTT1=
EXTT2=
EXTT3=
EXTT4=
EXTT5=
EXTT6=
EXTT7=
EXTT8=
EXTT9=
EXTT10=
EXTT11=
EXTT12=
EXTT13=
EXTT14=
PLAYORDER=
